<svg id="Layer_1" data-name="Layer 1" xmlns="http://www.w3.org/2000/svg" viewBox="0 0 791.8 294.51"><defs><style>.cls-1{fill:#faa61a;}.cls-2{fill:#0061af;}</style></defs><path class="cls-1" d="M6.94,206.39l-22.69-22.67,0-51.05H2.33A2.34,2.34,0,0,0,4,132l26.24-26.16h43a10.53,10.53,0,1,0,0-4.65H29.24a2.32,2.32,0,0,0-1.64.68L1.37,128H-75.19a10.49,10.49,0,0,0-10.25-8.21A10.54,10.54,0,0,0-96,130.35a10.53,10.53,0,0,0,10.52,10.52,10.49,10.49,0,0,0,10.25-8.2h54.75l.05,52a2.32,2.32,0,0,0,.68,1.64L3.66,209.67a10.51,10.51,0,1,0,19.41,5.6,10.51,10.51,0,0,0-16.13-8.88Z" transform="translate(95.96 14.17)"/><path class="cls-1" d="M301.56,118.89a10.49,10.49,0,0,0-10.25,8.2H138.17l0-53.57a2.32,2.32,0,0,0-.68-1.64L114.08,48.53a10.54,10.54,0,1,0-3.29,3.28l22.69,22.68,0,52.6h-24.2a2.3,2.3,0,0,0-1.64.68L81.44,153.93h-43a10.53,10.53,0,1,0,0,4.64H82.4a2.34,2.34,0,0,0,1.65-.68l26.23-26.16h181a10.52,10.52,0,1,0,10.25-12.84Z" transform="translate(95.96 14.17)"/><path class="cls-2" d="M185.81,162.25a12.69,12.69,0,0,0-8.4,22.26,135.46,135.46,0,0,1-74.57,70.58l0-34.39L125.57,198a10.52,10.52,0,1,0-3.29-3.28L98.91,218.1a2.3,2.3,0,0,0-.68,1.64l0,37.07A135.72,135.72,0,0,1,65.39,264a12.67,12.67,0,0,0-9.85-8.83V66.89a2.32,2.32,0,1,0-4.64,0V255.13A12.65,12.65,0,0,0,41.05,264,136.6,136.6,0,0,1-70.89,184.77,12.61,12.61,0,0,0-66.24,175,12.76,12.76,0,0,0-79,162.25,12.76,12.76,0,0,0-91.74,175,12.76,12.76,0,0,0-79,187.73a12.27,12.27,0,0,0,2.55-.28A142.77,142.77,0,0,0,40.76,270.09a12.7,12.7,0,0,0,24.92,0,142.59,142.59,0,0,0,117.18-82.76,11.86,11.86,0,0,0,2.95.39,12.74,12.74,0,1,0,0-25.48Z" transform="translate(95.96 14.17)"/><path class="cls-2" d="M185.81,70.52a12.19,12.19,0,0,0-2.23.21,142.54,142.54,0,0,0-260.71,0A12.4,12.4,0,0,0-79,70.52,12.77,12.77,0,0,0-91.74,83.27,12.76,12.76,0,0,0-79,96,12.75,12.75,0,0,0-66.24,83.27,12.75,12.75,0,0,0-71.44,73,135.69,135.69,0,0,1-21.9,14.55L.72,37.2V69.26A10.51,10.51,0,0,0-7.49,79.5a10.54,10.54,0,0,0,21.07,0A10.49,10.49,0,0,0,5.37,69.27v-33a2.3,2.3,0,0,0-.68-1.64L-17.83,12a136.38,136.38,0,0,1,68.73-20V48.82a12.72,12.72,0,1,0,4.64,0V-7.95A136.5,136.5,0,0,1,178,73.25a12.7,12.7,0,1,0,7.83-2.73Z" transform="translate(95.96 14.17)"/><path class="cls-2" d="M467.61,176.76a18.94,18.94,0,0,1-8.31-1.85,12.45,12.45,0,0,1-5.82-5.82l-25.4-52.63a1.54,1.54,0,0,0-1.61-1,2,2,0,0,0-1.36.55,2.13,2.13,0,0,0-.62,1.68V175H402.93v-61.3a28.78,28.78,0,0,1,2-11.64,20,20,0,0,1,5.76-7.55,25.39,25.39,0,0,1,6.51-3.65,22.13,22.13,0,0,1,8.11-1.43q7.93,0,12.95,4.34a32.94,32.94,0,0,1,8.24,11.26l19,41.12a2.18,2.18,0,0,0,4.21,0l19-41.12a33.34,33.34,0,0,1,8.18-11.26q4.95-4.33,13-4.34A22.13,22.13,0,0,1,518,90.89a25.39,25.39,0,0,1,6.51,3.65,19.81,19.81,0,0,1,5.76,7.55,28.76,28.76,0,0,1,2,11.64V175H510.73V117.7a2.17,2.17,0,0,0-.62-1.68,2,2,0,0,0-1.37-.55,1.54,1.54,0,0,0-1.61,1l-25.4,52.63a12.45,12.45,0,0,1-5.82,5.82A18.93,18.93,0,0,1,467.61,176.76Z" transform="translate(95.96 14.17)"/><path class="cls-2" d="M654.58,158.81a22.65,22.65,0,0,1-1.3,8.11,15.7,15.7,0,0,1-3.47,5.57,13.73,13.73,0,0,1-5,3.22,17.06,17.06,0,0,1-5.95,1,26,26,0,0,1-9.35-1.54,17.28,17.28,0,0,1-7-5l-46-53.12a2.73,2.73,0,0,0-2-1.12,2,2,0,0,0-1.49.62,2.37,2.37,0,0,0-.62,1.74V175h-22V109a25.3,25.3,0,0,1,1.42-9,15.44,15.44,0,0,1,4-6.07A15.73,15.73,0,0,1,562,90.51a27.77,27.77,0,0,1,7.81-1.05,21.11,21.11,0,0,1,18.09,8.3l40.89,48.91a2.44,2.44,0,0,0,1,.81,3.23,3.23,0,0,0,1.11.18c1.16,0,1.74-.74,1.74-2.23V91.32h21.93Z" transform="translate(95.96 14.17)"/><path class="cls-2" d="M695.84,91.32V175H673.29V91.32Z" transform="translate(95.96 14.17)"/><path class="cls-2" d="M218.42,133.58V133c0-44.22,35.63-80.12,83.61-80.12,47.7,0,83,35.33,83,79.55V133c0,44.22-35.62,80.11-83.61,80.11C253.76,213.11,218.42,177.8,218.42,133.58Zm123.54,0V133c0-22.68-16.37-42.5-40.51-42.5-25,0-39.93,19.24-39.93,41.93V133c0,22.69,16.37,42.5,40.51,42.5C327,175.5,342,156.26,342,133.58Z" transform="translate(95.96 14.17)"/></svg>