<?xml version="1.0" encoding="UTF-8"?>
<!DOCTYPE svg PUBLIC "-//W3C//DTD SVG 1.1//EN" "http://www.w3.org/Graphics/SVG/1.1/DTD/svg11.dtd">
<!-- Creator: CorelDRAW -->
<svg xmlns="http://www.w3.org/2000/svg" xml:space="preserve" width="3.75in" height="1.397in" version="1.1" style="shape-rendering:geometricPrecision; text-rendering:geometricPrecision; image-rendering:optimizeQuality; fill-rule:evenodd; clip-rule:evenodd"
viewBox="0 0 3750 1397"
 xmlns:xlink="http://www.w3.org/1999/xlink"
 xmlns:xodm="http://www.corel.com/coreldraw/odm/2003">
 <defs>
  <style type="text/css">
   <![CDATA[
    .fil1 {fill:#0061AE;fill-rule:nonzero}
    .fil0 {fill:#F9A51A;fill-rule:nonzero}
   ]]>
  </style>
 </defs>
 <g id="Layer_x0020_1">
  <metadata id="CorelCorpID_0Corel-Layer"/>
  <path class="fil0" d="M485.65 1046.5l-107.44 -107.46 -0.21 -241.9 85.83 0c2.87,0 5.69,-1.18 7.78,-3.22l124.24 -123.98 203.47 0c5.1,22.64 25.15,38.86 48.52,38.86 27.52,0 49.89,-22.36 49.89,-49.86 0,-27.5 -22.37,-49.87 -49.89,-49.87 -23.36,0 -43.4,16.22 -48.5,38.86l-208.06 0c-2.92,0 -5.67,1.15 -7.76,3.22l-124.25 124 -362.57 0c-5.1,-22.67 -25.17,-38.88 -48.57,-38.88 -27.47,0 -49.82,22.36 -49.82,49.88 0,27.47 22.35,49.86 49.82,49.86 23.4,0 43.46,-16.22 48.57,-38.86l259.3 0 0.21 246.5c0,2.86 1.15,5.67 3.21,7.76l110.68 110.64c-12.43,19.65 -9.72,45.29 6.81,61.85 9.72,9.71 22.48,14.56 35.25,14.56 12.79,0 25.56,-4.85 35.28,-14.58 9.42,-9.42 14.61,-21.96 14.61,-35.28 0.01,-13.32 -5.18,-25.85 -14.61,-35.28 -16.52,-16.48 -42.17,-19.19 -61.78,-6.81z"/>
  <path class="fil0" d="M1881 631.84c-23.39,0 -43.46,16.21 -48.54,38.87l-725.29 0 -0.21 -253.86c0,-2.93 -1.14,-5.7 -3.22,-7.78l-110.67 -110.67c12.43,-19.61 9.72,-45.28 -6.81,-61.82 -19.44,-19.41 -51.08,-19.41 -70.53,0 -9.43,9.43 -14.63,21.96 -14.64,35.28 0,13.33 5.19,25.85 14.64,35.28 16.53,16.5 42.18,19.21 61.78,6.79l107.46 107.47 0.19 249.3 -114.64 0c-2.9,0 -5.67,1.13 -7.76,3.18l-124.25 124 -203.49 0c-5.08,-22.67 -25.14,-38.89 -48.52,-38.89 -27.5,0 -49.87,22.39 -49.87,49.89 0,27.5 22.37,49.86 49.87,49.86 23.36,0 43.42,-16.21 48.52,-38.86l208.04 0c2.91,0 5.67,-1.15 7.78,-3.22l124.24 -123.99 857.37 0c5.09,22.65 25.15,38.86 48.54,38.86 27.48,0 49.85,-22.37 49.85,-49.86 0,-27.48 -22.36,-49.85 -49.85,-49.85z"/>
  <path class="fil1" d="M1332.79 837.32c-33.3,0 -60.42,27.08 -60.42,60.39 0,17.22 7.5,33.54 20.67,45.1 -69.81,154.01 -195.07,272.61 -353.21,334.47l0.18 -162.97 107.47 -107.43c19.61,12.41 45.26,9.7 61.78,-6.83 9.42,-9.43 14.61,-21.93 14.61,-35.25 0.02,-13.33 -5.18,-25.86 -14.61,-35.3 -19.44,-19.44 -51.08,-19.41 -70.53,0 -16.53,16.53 -19.25,42.19 -6.82,61.82l-110.7 110.67c-2.06,2.08 -3.18,4.85 -3.18,7.76l-0.21 175.68c-50.91,17.81 -103.13,29.19 -155.33,33.85 -6.48,-21.61 -24.43,-37.74 -46.65,-41.85l0 -892c0,-6.07 -4.93,-11 -11,-11 -6.07,0 -11,4.93 -11,11l0 892.03c-22.19,4.1 -40.15,20.21 -46.64,41.79 -231.15,-20.8 -433.97,-164.33 -530.18,-375.18 14.04,-11.59 22.04,-28.35 22.04,-46.35 0,-33.31 -27.07,-60.39 -60.36,-60.39 -33.31,0 -60.4,27.08 -60.4,60.39 0,33.28 27.09,60.36 60.4,60.36 3.87,0 7.85,-0.43 12.07,-1.35 100.89,220.46 313.22,370.29 555.04,391.64 5.58,28.26 30.1,48.57 59.06,48.57 28.91,0 53.39,-20.28 59,-48.53 241.89,-21.2 454.2,-171.26 554.97,-392.18 5.07,1.25 9.54,1.85 13.94,1.85 33.28,0 60.36,-27.08 60.36,-60.36 0,-33.31 -27.08,-60.39 -60.36,-60.39z"/>
  <path class="fil1" d="M1332.79 402.64c-3.44,0 -6.98,0.32 -10.54,0.97 -107.75,-244.47 -349.85,-402.32 -617.41,-402.31 -267.46,0 -509.54,157.75 -617.36,402.09 -3.15,-0.5 -5.99,-0.75 -8.78,-0.75 -33.31,0 -60.4,27.08 -60.4,60.39 0,33.28 27.09,60.36 60.4,60.36 33.29,0 60.36,-27.09 60.36,-60.36 0,-19.25 -9.17,-37.25 -24.63,-48.64 50.06,-113.07 131.13,-208.78 234.64,-277.03l107.14 107.36 0 151.94c-22.68,5.1 -38.9,25.14 -38.9,48.52 0,27.5 22.39,49.89 49.9,49.89 27.5,0 49.88,-22.39 49.88,-49.89 0,-23.36 -16.22,-43.41 -38.88,-48.5l0 -156.52c0,-2.93 -1.15,-5.69 -3.23,-7.79l-106.67 -106.92c98.37,-60.04 210.81,-92.76 325.53,-94.71l0 269.03c-28.3,5.25 -49.37,30.25 -49.37,59.13 0,33.28 27.1,60.35 60.4,60.35 33.29,0 60.36,-27.07 60.36,-60.35 0,-28.87 -21.07,-53.9 -49.39,-59.15l0 -269c251.49,4.25 478.67,154.99 579.86,384.79 -14.64,11.46 -23.33,29.06 -23.33,47.49 0,33.28 27.11,60.36 60.42,60.36 33.28,0 60.36,-27.09 60.36,-60.36 0,-33.31 -27.08,-60.39 -60.36,-60.39z"/>
  <path class="fil1" d="M2667.43 906.1c-14.08,0 -27.19,-2.94 -39.32,-8.82 -12.14,-5.86 -21.33,-15.06 -27.58,-27.57l-120.31 -249.4c-1.17,-3.13 -3.72,-4.69 -7.63,-4.69 -2.35,0 -4.5,0.87 -6.46,2.64 -1.96,1.75 -2.93,4.4 -2.93,7.93l0 271.7 -102.11 0 0 -290.49c0,-22.29 3.24,-40.68 9.7,-55.17 6.44,-14.46 15.54,-26.4 27.28,-35.79 9,-7.03 19.26,-12.81 30.81,-17.31 11.54,-4.5 24.36,-6.75 38.44,-6.75 25.03,0 45.47,6.85 61.32,20.53 15.85,13.71 28.85,31.5 39.03,53.42l89.79 194.82c1.94,5.09 5.28,7.63 9.97,7.63 4.69,0 8.02,-2.53 9.97,-7.63l89.79 -194.82c10.17,-21.92 23.07,-39.71 38.72,-53.42 15.64,-13.68 36.18,-20.53 61.62,-20.53 14.08,0 26.89,2.25 38.43,6.75 11.54,4.5 21.8,10.28 30.82,17.31 11.74,9.39 20.83,21.33 27.28,35.79 6.46,14.48 9.7,32.87 9.7,55.17l0 290.49 -102.11 0 0 -271.7c0,-3.53 -0.99,-6.18 -2.94,-7.93 -1.96,-1.76 -4.1,-2.64 -6.46,-2.64 -3.9,0 -6.44,1.57 -7.63,4.69l-120.3 249.4c-6.25,12.52 -15.44,21.71 -27.57,27.57 -12.14,5.87 -25.24,8.82 -39.32,8.82z"/>
  <path class="fil1" d="M3552.96 821.01c0,14.87 -2.06,27.68 -6.17,38.44 -4.1,10.76 -9.58,19.56 -16.42,26.4 -6.86,6.85 -14.78,11.93 -23.78,15.26 -9,3.32 -18.39,4.99 -28.17,4.99 -16.83,0 -31.59,-2.46 -44.3,-7.33 -12.72,-4.89 -23.76,-12.82 -33.15,-23.78l-217.72 -251.75c-3.13,-3.52 -6.26,-5.28 -9.39,-5.28 -2.74,0 -5.08,0.97 -7.04,2.93 -1.96,1.96 -2.93,4.69 -2.93,8.22l0 268.76 -104.46 0 0 -312.78c0,-16.82 2.24,-31.11 6.75,-42.85 4.48,-11.74 10.86,-21.3 19.07,-28.75 8.22,-7.43 18,-12.81 29.35,-16.14 11.33,-3.32 23.67,-4.99 36.97,-4.99 18.78,0 34.61,2.93 47.53,8.81 12.92,5.86 25.62,16.04 38.14,30.51l193.67 231.79c1.56,1.97 3.13,3.24 4.68,3.82 1.57,0.6 3.33,0.88 5.29,0.88 5.47,0 8.21,-3.52 8.21,-10.56l0 -256.44 103.87 0 0 319.82z"/>
  <polygon class="fil1" points="3748.37,897.89 3641.58,897.89 3641.58,501.19 3748.37,501.19 "/>
  <path class="fil1" d="M2072.37 701.43l0 -2.72c0,-107.5 -77.56,-201.39 -191.86,-201.39 -118.39,0 -189.15,91.15 -189.15,198.67l0 2.72c0,107.5 77.56,201.39 191.87,201.39 118.39,0 189.14,-91.17 189.14,-198.67zm-585.14 0l0 -2.72c0,-209.57 168.76,-379.67 396,-379.67 225.89,0 393.26,167.39 393.26,376.94l0 2.72c0,209.57 -168.72,379.65 -395.98,379.65 -225.91,0 -393.28,-167.37 -393.28,-376.93z"/>
  <path class="fil1" d="M2698.56 236.84l-56.33 -131.08c-1.82,-3.97 -4.15,-6.86 -7.04,-8.67 -2.89,-1.81 -6.14,-2.71 -9.75,-2.71 -3.25,0 -6.32,0.8 -9.21,2.43 -2.9,1.63 -5.24,4.61 -7.04,8.94l-55.79 131.08 145.17 0zm164.12 121.33c1.43,2.89 2.61,5.6 3.52,8.13 0.9,2.53 1.71,5.24 2.44,8.12l-110.5 0c-0.74,-2.53 -1.44,-4.78 -2.17,-6.78 -0.72,-1.97 -1.44,-3.87 -2.17,-5.68l-19.5 -44.42 -216.67 0 -18.96 43.87c-0.72,2.17 -1.44,4.33 -2.17,6.5 -0.74,2.17 -1.28,4.33 -1.63,6.5l-113.21 0c0.72,-2.89 1.53,-5.59 2.43,-8.12 0.9,-2.53 2.08,-5.24 3.53,-8.13l131.08 -290.33c10.47,-22.75 24.18,-39.72 41.17,-50.92 16.97,-11.19 38.64,-16.79 65,-16.79 25.64,0 47.03,5.6 64.18,16.79 17.15,11.2 30.96,28.17 41.44,50.92l132.17 290.33z"/>
  <path class="fil1" d="M3005.15 105.21c-4.69,0 -7.04,2.53 -7.04,7.59l0 157.62c0,5.06 2.35,7.59 7.04,7.59l116.46 0c17.33,0 31.96,-2.53 43.87,-7.59 11.92,-5.06 21.85,-11.91 29.79,-20.58 7.21,-7.58 12.81,-16.33 16.79,-26.28 3.97,-9.92 5.96,-20.49 5.96,-31.68 0,-12.28 -2.44,-23.83 -7.32,-34.67 -4.88,-10.83 -11.46,-20.22 -19.76,-28.17 -7.94,-7.22 -17.33,-13 -28.17,-17.33 -10.83,-4.33 -24.56,-6.5 -41.17,-6.5l-116.46 0zm116.46 -96.96c29.61,0 55.51,4.25 77.72,12.74 22.22,8.47 41.44,20.31 57.7,35.47 18.42,16.97 32.85,37.01 43.33,60.13 10.47,23.11 15.71,48.03 15.71,74.75 0,24.2 -4.15,46.76 -12.46,67.71 -8.31,20.94 -19.86,39.54 -34.67,55.79 -16.97,18.42 -37.56,32.96 -61.75,43.6 -24.19,10.67 -52.74,15.98 -85.58,15.98l-197.71 0c-15.9,0 -23.83,-7.76 -23.83,-23.29l0 -320.12c0,-15.17 7.93,-22.75 23.83,-22.75l197.71 0z"/>
  <path class="fil1" d="M3747.77 8.26l0 96.96 -271.91 0c-10.11,0 -15.17,5.42 -15.17,16.25l0 39.54 285.46 0 0 91 -285.46 0 0 122.41 -98.04 0 0 -299c0,-44.78 22.01,-67.17 66.08,-67.17l319.04 0z"/>
 </g>
</svg>
